ModelForces
version=1
nRows=4
nColumns=157
inDegrees=no

This file contains the forces exerted on a model during a simulation.

A force is a generalized force, meaning that it can be either a force (N) or a torque (Nm).

Units are S.I. units (second, meters, Newtons, ...)
Angles are in degrees.

endheader
time	glut_med1_r	glut_med2_r	glut_med3_r	glut_min1_r	glut_min2_r	glut_min3_r	semimem_r	semiten_r	bifemlh_r	bifemsh_r	sar_r	add_long_r	add_brev_r	add_mag1_r	add_mag2_r	add_mag3_r	tfl_r	pect_r	grac_r	glut_max1_r	glut_max2_r	glut_max3_r	iliacus_r	psoas_r	quad_fem_r	gem_r	peri_r	rect_fem_r	vas_med_r	vas_int_r	vas_lat_r	med_gas_r	lat_gas_r	soleus_r	tib_post_r	flex_dig_r	flex_hal_r	tib_ant_r	per_brev_r	per_long_r	per_tert_r	ext_dig_r	ext_hal_r	glut_med1_l	glut_med2_l	glut_med3_l	glut_min1_l	glut_min2_l	glut_min3_l	semimem_l	semiten_l	bifemlh_l	bifemsh_l	sar_l	add_long_l	add_brev_l	add_mag1_l	add_mag2_l	add_mag3_l	tfl_l	pect_l	grac_l	glut_max1_l	glut_max2_l	glut_max3_l	iliacus_l	psoas_l	quad_fem_l	gem_l	peri_l	rect_fem_l	vas_med_l	vas_int_l	vas_lat_l	med_gas_l	lat_gas_l	soleus_l	tib_post_l	flex_dig_l	flex_hal_l	tib_ant_l	per_brev_l	per_long_l	per_tert_l	ext_dig_l	ext_hal_l	ercspn_r	ercspn_l	intobl_r	intobl_l	extobl_r	extobl_l	femur_lat_meniscii_r.femur_lat_r.force.X	femur_lat_meniscii_r.femur_lat_r.force.Y	femur_lat_meniscii_r.femur_lat_r.force.Z	femur_lat_meniscii_r.femur_lat_r.torque.X	femur_lat_meniscii_r.femur_lat_r.torque.Y	femur_lat_meniscii_r.femur_lat_r.torque.Z	femur_lat_meniscii_r.meniscus_lat_r.force.X	femur_lat_meniscii_r.meniscus_lat_r.force.Y	femur_lat_meniscii_r.meniscus_lat_r.force.Z	femur_lat_meniscii_r.meniscus_lat_r.torque.X	femur_lat_meniscii_r.meniscus_lat_r.torque.Y	femur_lat_meniscii_r.meniscus_lat_r.torque.Z	femur_med_meniscii_r.femur_med_r.force.X	femur_med_meniscii_r.femur_med_r.force.Y	femur_med_meniscii_r.femur_med_r.force.Z	femur_med_meniscii_r.femur_med_r.torque.X	femur_med_meniscii_r.femur_med_r.torque.Y	femur_med_meniscii_r.femur_med_r.torque.Z	femur_med_meniscii_r.meniscus_med_r.force.X	femur_med_meniscii_r.meniscus_med_r.force.Y	femur_med_meniscii_r.meniscus_med_r.force.Z	femur_med_meniscii_r.meniscus_med_r.torque.X	femur_med_meniscii_r.meniscus_med_r.torque.Y	femur_med_meniscii_r.meniscus_med_r.torque.Z	femur_med_tibia_r.tibia_upper_r.force.X	femur_med_tibia_r.tibia_upper_r.force.Y	femur_med_tibia_r.tibia_upper_r.force.Z	femur_med_tibia_r.tibia_upper_r.torque.X	femur_med_tibia_r.tibia_upper_r.torque.Y	femur_med_tibia_r.tibia_upper_r.torque.Z	femur_med_tibia_r.femur_med_r.force.X	femur_med_tibia_r.femur_med_r.force.Y	femur_med_tibia_r.femur_med_r.force.Z	femur_med_tibia_r.femur_med_r.torque.X	femur_med_tibia_r.femur_med_r.torque.Y	femur_med_tibia_r.femur_med_r.torque.Z	femur_lat_tibia_r.tibia_upper_r.force.X	femur_lat_tibia_r.tibia_upper_r.force.Y	femur_lat_tibia_r.tibia_upper_r.force.Z	femur_lat_tibia_r.tibia_upper_r.torque.X	femur_lat_tibia_r.tibia_upper_r.torque.Y	femur_lat_tibia_r.tibia_upper_r.torque.Z	femur_lat_tibia_r.femur_lat_r.force.X	femur_lat_tibia_r.femur_lat_r.force.Y	femur_lat_tibia_r.femur_lat_r.force.Z	femur_lat_tibia_r.femur_lat_r.torque.X	femur_lat_tibia_r.femur_lat_r.torque.Y	femur_lat_tibia_r.femur_lat_r.torque.Z	aACL_R	pACL_R	aPCL_R	pPCL_R	aMCL_R	mMCL_R	pMCL_R	aLCL_R	mLCL_R	pLCL_R	ground_prescribedForce_fx	ground_prescribedForce_fy	ground_prescribedForce_fz	ground_prescribedForce_px	ground_prescribedForce_py	ground_prescribedForce_pz
      0.48787716	      7.60452310	      5.70472918	      6.10695586	      2.67644806	      3.19788871	      3.21662282	      6.66606681	      4.04916907	      7.24195673	      7.15026897	      1.35026696	      5.65234770	      4.16808725	      2.93885583	      2.47087850	      4.01834631	      3.86609143	      2.25355227	      1.53520023	      3.68120365	      5.59430912	      4.17653700	     22.71827268	     13.04631894	      3.65108153	      2.86573933	      4.13574049	     11.44947859	      8.03189162	      8.48312977	     11.09821818	      3.07422958	      1.78411901	      9.04993356	     12.35659665	      2.31848304	      2.53513998	     14.27392757	      3.40520286	      6.81353116	     10.26535341	      8.87379389	      2.13994726	      7.60452310	      5.70472918	      6.10695586	      2.67644806	      3.19788871	      3.21662282	      8.82769819	      4.11354450	      7.75148042	      7.26461363	      1.52970678	      5.65234770	      4.16808725	      2.93885583	      2.47087850	      4.01834631	      4.11612289	      2.25355227	      1.56909900	      3.68120365	      5.59430912	      4.17653700	     22.71827268	     13.04631894	      3.65108153	      2.86573933	      4.13574049	     10.76056169	      6.63907280	      7.61657922	      8.18958257	     14.16034405	      6.57513887	     31.43342006	     42.49491389	      2.77413128	      2.94835842	      8.52206433	      4.37619108	     12.54913965	      2.01821257	      5.32582934	      1.69173028	     25.17166495	     25.17166495	      9.06487140	      9.06487140	     26.86287974	     26.86287974	     44.73857629	     74.62780960	     15.80141651	     -8.37033398	      1.07771441	     18.61176847	    -44.73857629	    -74.62780960	    -15.80141651	      2.43068396	     -1.23651106	     -1.04485401	     30.17873122	     49.38683055	     17.26435340	     -6.00028217	     -0.79124753	     12.67953516	    -30.17873122	    -49.38683055	    -17.26435340	     -0.54256852	      0.64874925	     -0.83475499	     -1.41977653	     -5.10446861	     -0.84356930	     -0.08953983	      0.03428816	     -0.05666189	      1.41977653	      5.10446861	      0.84356930	     -0.22569521	     -0.04116004	      0.62880290	      0.00000000	      0.00000000	      0.00000000	      0.00000000	      0.00000000	      0.00000000	      0.00000000	      0.00000000	      0.00000000	      0.00000000	      0.00000000	      0.00000000	     50.43613783	     42.47365476	      0.00000000	      0.00000000	      0.00000000	     -0.34695103	     -0.46014093	      1.39514754	      0.00000000	      0.00000000	    106.25000000	    -28.47000000	      0.00000000	      0.03000000	     -0.03000000	      0.00000000
      0.49191221	      7.60153416	      5.70267036	      6.10472454	      2.67552310	      3.19688812	      3.21536111	      6.64634965	      4.04321411	      7.22868341	      7.13817178	      3.21203230	      5.65028400	      4.16665976	      2.93780296	      2.46997220	      4.01671371	      3.86929117	      2.25276851	      1.53602093	      3.67987618	      5.59228563	      4.17499863	     22.71453933	     13.04212004	      3.64979231	      2.86513574	      4.13334601	     11.42511369	      8.00615756	      8.44789577	     11.05583987	      3.06452179	      1.78295140	      9.04313903	     12.34942864	      2.38758958	      2.51905010	     14.33267462	      3.42701807	      6.84691809	     10.29835565	      8.70799384	      2.12878028	      7.60153416	      5.70267036	      6.10472454	      2.67552310	      3.19688812	      3.21536111	      8.82334612	      4.11194315	      7.74785864	      7.26204687	      1.52918053	      5.65028400	      4.16665976	      2.93780296	      2.46997220	      4.01671371	      4.11511311	      2.25276851	      1.56854984	      3.67987618	      5.59228563	      4.17499863	     22.71453933	     13.04212004	      3.64979231	      2.86513574	      4.13334601	     10.75563222	      6.63662201	      7.61371330	      8.18651663	     14.14977136	      6.57022207	     31.41526258	     42.48779617	      2.77058113	      2.94581567	      8.51835461	      4.37396953	     12.54381073	      2.01756123	      5.32417529	      1.69125728	     25.16294599	     25.16294599	      9.06145211	      9.06145211	     26.85980835	     26.85980835	     44.32125643	     73.99376146	     15.62787873	     -8.28245521	      1.06748862	     18.43764405	    -44.32125643	    -73.99376146	    -15.62787873	      2.40844090	     -1.22469039	     -1.03440911	     30.07265505	     49.21312547	     17.17856440	     -5.96869270	     -0.78833839	     12.63508791	    -30.07265505	    -49.21312547	    -17.17856440	     -0.54146281	      0.64647083	     -0.83204068	     -1.51214990	     -5.42865841	     -0.89732262	     -0.09525508	      0.03653534	     -0.06039094	      1.51214990	      5.42865841	      0.89732262	     -0.24006184	     -0.04384843	      0.66970321	      0.00000000	      0.00000000	      0.00000000	      0.00000000	      0.00000000	      0.00000000	      0.00000000	      0.00000000	      0.00000000	      0.00000000	      0.00000000	      0.00000000	     50.57813845	     42.66897809	      0.00000000	      0.00000000	      0.00000000	     -0.15958600	     -0.27152771	      1.62829608	      0.00000000	      0.00000000	    106.25000000	    -28.47000000	      0.00000000	      0.03000000	     -0.03000000	      0.00000000
      0.49518713	      7.59922002	      5.70107631	      6.10299694	      2.67480694	      3.19611341	      3.21438425	      6.64544965	      4.04630198	      7.22867814	      7.16875000	      8.76546701	      5.64868618	      4.16555461	      2.93698778	      2.46927051	      4.01544970	      3.87374101	      2.25216169	      1.54442298	      3.67884840	      5.59071894	      4.17380756	     22.71164882	     13.03886916	      3.64879412	      2.86466843	      4.13149110	     11.42176408	      8.02796778	      8.45915800	     11.06502376	      3.07485415	      1.78932536	      9.05390472	     12.33085307	      2.44454424	      2.50520094	     14.36877065	      3.45139371	      6.88312242	     10.32649158	      8.56675744	      2.12127591	      7.59922002	      5.70107631	      6.10299694	      2.67480694	      3.19611341	      3.21438425	      8.81997630	      4.11070332	      7.74505442	      7.26005955	      1.52877307	      5.64868618	      4.16555461	      2.93698778	      2.46927051	      4.01544970	      4.11433133	      2.25216169	      1.56812465	      3.67884840	      5.59071894	      4.17380756	     22.71164882	     13.03886916	      3.64879412	      2.86466843	      4.13149110	     10.75181555	      6.63472452	      7.61149440	      8.18414289	     14.14156658	      6.56640642	     31.40119714	     42.48228382	      2.76774372	      2.94379919	      8.51548241	      4.37224928	     12.53968033	      2.01705695	      5.32295067	      1.69090799	     25.15619527	     25.15619527	      9.05880475	      9.05880475	     26.85743035	     26.85743035	     44.70251933	     74.57772591	     15.93305606	     -8.42215517	      1.07541845	     18.59754831	    -44.70251933	    -74.57772591	    -15.93305606	      2.43206013	     -1.23490090	     -1.04497227	     30.22237345	     49.33964081	     17.19049885	     -5.97049365	     -0.79180471	     12.69765716	    -30.22237345	    -49.33964081	    -17.19049885	     -0.54400213	      0.64962619	     -0.83653766	     -1.52487246	     -5.47267298	     -0.90394378	     -0.09607359	      0.03684924	     -0.06090605	      1.52487246	      5.47267298	      0.90394378	     -0.24170680	     -0.04421876	      0.67532805	      0.00000000	      0.00000000	      0.00000000	      0.00000000	      0.00000000	      0.00000000	      0.00000000	      0.00000000	      0.00000000	      0.00000000	      0.00000000	      0.00000000	     50.66627003	     42.80097427	      0.00000000	      0.00000000	      0.00000000	     -0.27080992	     -0.37264389	      1.38223557	      0.00000000	      0.00000000	    106.25000000	    -28.47000000	      0.00000000	      0.03000000	     -0.03000000	      0.00000000
      0.49815601	      7.59720493	      5.69968823	      6.10149257	      2.67418331	      3.19543880	      3.21353363	      6.63606352	      4.04328137	      7.22113210	      7.16096683	      0.00000000	      5.64729482	      4.16459221	      2.93627793	      2.46865948	      4.01434904	      3.87501664	      2.25163326	      1.54390044	      3.67795341	      5.58935470	      4.17277039	     22.70913182	     13.03603840	      3.64792490	      2.86426151	      4.12987515	     11.40771499	      8.01507674	      8.44284044	     11.04310535	      3.07028826	      1.78918016	      9.05454549	     12.30373338	      2.49568611	      2.49093261	     14.40207365	      3.47625264	      6.92078089	     10.35397319	      8.43878330	      2.11722664	      7.59720493	      5.69968823	      6.10149257	      2.67418331	      3.19543880	      3.21353363	      8.81704174	      4.10962371	      7.74261249	      7.25832900	      1.52841827	      5.64729482	      4.16459221	      2.93627793	      2.46865948	      4.01434904	      4.11365058	      2.25163326	      1.56775440	      3.67795341	      5.58935470	      4.17277039	     22.70913182	     13.03603840	      3.64792490	      2.86426151	      4.12987515	     10.74849200	      6.63307222	      7.60956224	      8.18207589	     14.13440814	      6.56307734	     31.38894403	     42.47748265	      2.76520389	      2.94200628	      8.51298135	      4.37075114	     12.53608034	      2.01661784	      5.32192740	      1.69061678	     25.15031675	     25.15031675	      9.05649948	      9.05649948	     26.85535963	     26.85535963	     44.26464689	     73.93550755	     15.74768499	     -8.32945430	      1.06495962	     18.41483823	    -44.26464689	    -73.93550755	    -15.74768499	      2.40946481	     -1.22272893	     -1.03380739	     30.03784888	     49.04992813	     17.04719249	     -5.91778359	     -0.78674733	     12.62008742	    -30.03784888	    -49.04992813	    -17.04719249	     -0.54217685	      0.64564587	     -0.83138189	     -1.59338762	     -5.71283129	     -0.94366806	     -0.10031287	      0.03851665	     -0.06367282	      1.59338762	      5.71283129	      0.94366806	     -0.25230887	     -0.04621227	      0.70566437	      0.00000000	      0.00000000	      0.00000000	      0.00000000	      0.00000000	      0.00000000	      0.00000000	      0.00000000	      0.00000000	      0.00000000	      0.00000000	      0.00000000	     50.82025108	     43.00024964	      0.00000000	      0.00000000	      0.00000000	     -0.06346661	     -0.16935668	      1.64113524	      0.00000000	      0.00000000	    106.25000000	    -28.47000000	      0.00000000	      0.03000000	     -0.03000000	      0.00000000
